<mxfile host="app.diagrams.net" modified="2024-04-11T20:48:52.194Z" agent="Mozilla/5.0 (Windows NT 10.0; Win64; x64) AppleWebKit/537.36 (KHTML, like Gecko) Chrome/123.0.0.0 Safari/537.36" etag="u5gaONB6PgMQdfCaQ8Ge" version="24.2.3" type="github">
  <diagram id="C5RBs43oDa-KdzZeNtuy" name="Page-1">
    <mxGraphModel dx="1050" dy="522" grid="1" gridSize="10" guides="1" tooltips="1" connect="1" arrows="1" fold="1" page="1" pageScale="1" pageWidth="827" pageHeight="1169" math="0" shadow="0">
      <root>
        <mxCell id="WIyWlLk6GJQsqaUBKTNV-0" />
        <mxCell id="WIyWlLk6GJQsqaUBKTNV-1" parent="WIyWlLk6GJQsqaUBKTNV-0" />
        <mxCell id="XK0hXgAbiwANAeqYQILz-0" value="Conta" style="swimlane;fontStyle=1;align=center;verticalAlign=top;childLayout=stackLayout;horizontal=1;startSize=26;horizontalStack=0;resizeParent=1;resizeParentMax=0;resizeLast=0;collapsible=1;marginBottom=0;whiteSpace=wrap;html=1;" vertex="1" parent="WIyWlLk6GJQsqaUBKTNV-1">
          <mxGeometry x="250" y="210" width="180" height="280" as="geometry" />
        </mxCell>
        <mxCell id="XK0hXgAbiwANAeqYQILz-1" value="-agencia: int&lt;div&gt;-codigo: int&lt;/div&gt;&lt;div&gt;-saldo: int&lt;/div&gt;&lt;div&gt;-limite: float&lt;/div&gt;" style="text;strokeColor=none;fillColor=none;align=left;verticalAlign=top;spacingLeft=4;spacingRight=4;overflow=hidden;rotatable=0;points=[[0,0.5],[1,0.5]];portConstraint=eastwest;whiteSpace=wrap;html=1;" vertex="1" parent="XK0hXgAbiwANAeqYQILz-0">
          <mxGeometry y="26" width="180" height="64" as="geometry" />
        </mxCell>
        <mxCell id="XK0hXgAbiwANAeqYQILz-2" value="" style="line;strokeWidth=1;fillColor=none;align=left;verticalAlign=middle;spacingTop=-1;spacingLeft=3;spacingRight=3;rotatable=0;labelPosition=right;points=[];portConstraint=eastwest;strokeColor=inherit;" vertex="1" parent="XK0hXgAbiwANAeqYQILz-0">
          <mxGeometry y="90" width="180" height="8" as="geometry" />
        </mxCell>
        <mxCell id="XK0hXgAbiwANAeqYQILz-3" value="+getAgencia(): int&lt;div&gt;+setAgencia(agencia: int): void&lt;/div&gt;&lt;div&gt;+getCodigo(): int&lt;/div&gt;&lt;div&gt;+setCodigo(codigo: int): void&lt;/div&gt;&lt;div&gt;+getSaldo(): int&lt;/div&gt;&lt;div&gt;+setSaldo(saldo int): void&lt;/div&gt;&lt;div&gt;+getLimite(): float&lt;/div&gt;&lt;div&gt;+setLimite(limite: float): float&lt;/div&gt;&lt;div&gt;+depositar(valor float): void&lt;/div&gt;&lt;div&gt;+sacar(valor:&amp;nbsp; float): void&lt;/div&gt;" style="text;strokeColor=none;fillColor=none;align=left;verticalAlign=top;spacingLeft=4;spacingRight=4;overflow=hidden;rotatable=0;points=[[0,0.5],[1,0.5]];portConstraint=eastwest;whiteSpace=wrap;html=1;" vertex="1" parent="XK0hXgAbiwANAeqYQILz-0">
          <mxGeometry y="98" width="180" height="182" as="geometry" />
        </mxCell>
      </root>
    </mxGraphModel>
  </diagram>
</mxfile>
